<svg width="800" height="600" xmlns="http://www.w3.org/2000/svg">
 <g>
  <title>Layer 1</title>
  <g stroke="null" id="svg_75">
   <g stroke="null" id="svg_21">
    <rect stroke="#000" fill="#FABA6F" x="297.07262" y="273.21075" width="140" height="50" id="svg_1" rx="10" transform="matrix(4.8663 0.38684 -0.340285 5.53207 -1283.31 -1411.73)"/>
    <rect stroke="#000" fill="#ffffff" x="297.07262" y="271.87742" width="143" height="13" id="svg_2" rx="10" transform="matrix(4.8663 0.38684 -0.340285 5.53207 -1290.04 -1412.57)"/>
    <path stroke="#000" fill="#ffffff" d="m90.60243,329.67552c-26.73468,-21.5602 -35.96619,-34.58832 -35.12584,-49.57183c0.76605,-13.65932 13.90142,-25.85725 26.66923,-24.76589c6.37565,0.54501 19.74778,6.65781 24.34115,11.12722c2.31439,2.25192 3.48303,2.14091 9.12925,-0.86729c15.36655,-8.18697 29.82188,-7.23531 38.62023,2.54249c14.06163,15.62702 10.27925,32.653 -10.87305,48.94389c-11.24577,8.6612 -35.56447,23.67943 -38.02663,23.48369c-0.74918,-0.05955 -7.37966,-4.9611 -14.73437,-10.89228l0,0l0.00005,0z" id="svg_13" stroke-width="0"/>
    <path stroke="#000" fill="#ffffff" d="m632.08094,374.04013c-26.73463,-21.56026 -35.96614,-34.58832 -35.12579,-49.57183c0.76605,-13.65932 13.90142,-25.85719 26.66923,-24.76595c6.37565,0.54507 19.74778,6.65787 24.34115,11.12722c2.31439,2.25192 3.48303,2.14091 9.12925,-0.86723c15.36655,-8.18691 29.82188,-7.23537 38.62023,2.54249c14.06163,15.62702 10.27925,32.653 -10.873,48.94389c-11.24577,8.6612 -35.56447,23.67943 -38.02663,23.48375c-0.74918,-0.05955 -7.37966,-4.9611 -14.73437,-10.89228l0,0l-0.00005,-0.00006z" id="svg_14" stroke-width="0"/>
    <path stroke="#000" fill="#ffffff" d="m554.02998,357.40341c-26.73463,-21.56026 -35.96614,-34.58832 -35.12579,-49.57183c0.76605,-13.65932 13.90142,-25.85719 26.66923,-24.76595c6.37565,0.54507 19.74778,6.65787 24.34115,11.12722c2.31439,2.25192 3.48303,2.14091 9.12925,-0.86723c15.36655,-8.18691 29.82188,-7.23537 38.62023,2.54249c14.06163,15.62702 10.27925,32.653 -10.873,48.94389c-11.24577,8.6612 -35.56447,23.67943 -38.02663,23.48375c-0.74918,-0.05955 -7.37966,-4.9611 -14.73437,-10.89228l0,0l-0.00005,-0.00006z" id="svg_15" stroke-width="0"/>
    <path stroke="#000" fill="#ffffff" d="m466.22269,351.85779c-26.73463,-21.56026 -35.96614,-34.58832 -35.12579,-49.57183c0.76605,-13.65932 13.90142,-25.85719 26.66923,-24.76595c6.37565,0.54507 19.74778,6.65787 24.34115,11.12722c2.31439,2.25192 3.48303,2.14091 9.12925,-0.86723c15.36655,-8.18691 29.82188,-7.23537 38.62023,2.54249c14.06163,15.62702 10.27925,32.653 -10.873,48.94389c-11.24577,8.6612 -35.56447,23.67943 -38.02663,23.48375c-0.74918,-0.05955 -7.37966,-4.9611 -14.73437,-10.89228l0,0l-0.00005,-0.00006z" id="svg_16" stroke-width="0"/>
    <path stroke="#000" fill="#ffffff" d="m373.53717,346.31224c-26.73463,-21.56026 -35.96614,-34.58832 -35.12579,-49.57183c0.76605,-13.65932 13.90142,-25.85719 26.66923,-24.76595c6.37565,0.54507 19.74778,6.65787 24.34115,11.12722c2.31439,2.25192 3.48303,2.14091 9.12925,-0.86723c15.36655,-8.18691 29.82188,-7.23537 38.62023,2.54249c14.06163,15.62702 10.27925,32.653 -10.873,48.94389c-11.24577,8.6612 -35.56447,23.67943 -38.02663,23.48375c-0.74918,-0.05955 -7.37966,-4.9611 -14.73437,-10.89228l0,0l-0.00005,-0.00006z" id="svg_17" stroke-width="0"/>
    <path stroke="#000" fill="#ffffff" d="m285.72984,340.76669c-26.73463,-21.56026 -35.96614,-34.58832 -35.12579,-49.57183c0.76605,-13.65932 13.90142,-25.85719 26.66923,-24.76595c6.37565,0.54507 19.74778,6.65787 24.34115,11.12722c2.31439,2.25192 3.48303,2.14091 9.12925,-0.86723c15.36655,-8.18691 29.82188,-7.23537 38.62023,2.54249c14.06163,15.62702 10.27925,32.653 -10.873,48.94389c-11.24577,8.6612 -35.56447,23.67943 -38.02663,23.48375c-0.74918,-0.05955 -7.37966,-4.9611 -14.73437,-10.89228l0,0l-0.00005,-0.00006z" id="svg_18" stroke-width="0"/>
    <path stroke="#000" fill="#ffffff" d="m193.04432,335.22107c-26.73463,-21.56026 -35.96614,-34.58832 -35.12579,-49.57183c0.76605,-13.65932 13.90142,-25.85719 26.66923,-24.76595c6.37565,0.54507 19.74778,6.65787 24.34115,11.12722c2.31439,2.25192 3.48303,2.14091 9.12925,-0.86723c15.36655,-8.18691 29.82188,-7.23537 38.62023,2.54249c14.06163,15.62702 10.27925,32.653 -10.873,48.94389c-11.24577,8.6612 -35.56447,23.67943 -38.02663,23.48375c-0.74918,-0.05955 -7.37966,-4.9611 -14.73437,-10.89228l0,0l-0.00005,-0.00006z" id="svg_19" stroke-width="0"/>
    <path stroke="#000" fill="#ffffff" d="m699.3117,373.94253c-19.1231,-24.08251 -25.58056,-38.86828 -24.57046,-56.26007c0.9208,-15.85478 10.91164,-30.43339 20.28478,-29.59968c4.68053,0.41649 14.36749,7.04887 17.63314,12.07309c1.6454,2.5315 2.50881,2.36341 6.74498,-1.31313c11.52903,-10.00591 22.14845,-9.39102 28.3718,1.64295c9.94627,17.63452 6.71645,37.49252 -9.28457,57.08484c-8.50707,10.41649 -26.80648,28.6409 -28.61439,28.49715c-0.55011,-0.04373 -5.30448,-5.50008 -10.56527,-12.12509l0,0l0,-0.00006z" id="svg_20" stroke-width="0"/>
   </g>
   <g stroke="null" transform="matrix(5.16867 0.731044 -0.63026 5.99519 -1018.62 -1465.41)" id="svg_45">
    <g stroke="null" id="svg_44">
     <path stroke="#000" fill="#FFEBFF" d="m271.73051,226.04817c-3.43722,0 -6.38753,2.85571 -7.83165,6.97833c-0.57678,-0.51588 -1.21296,-0.82824 -1.89192,-0.82824c-2.05318,0 -3.76173,2.64615 -4.2898,6.23821c-0.90136,-0.57077 -1.94939,-0.91635 -3.06887,-0.91635c-3.35843,0 -6.08272,2.94384 -6.08272,6.57302c0,3.27596 2.23428,5.96909 5.13677,6.46729c-0.13009,0.3536 -0.23099,0.70376 -0.23099,1.07494c0,3.47475 5.94216,6.30869 13.2654,6.30869c7.32325,0 13.26542,-2.83395 13.26541,-6.30869c0,-0.23379 -0.09058,-0.44243 -0.14299,-0.66963c0.32075,0.12779 0.63835,0.26433 0.98995,0.26433c1.95908,0.00001 3.55284,-2.13259 3.55284,-4.75795c0,-2.62537 -1.59376,-4.75795 -3.55284,-4.75795c-0.24008,0 -0.44422,0.13285 -0.67097,0.19384c0.19827,-1.04975 0.32999,-2.12089 0.32999,-3.26008c0,-6.94948 -3.92654,-12.59975 -8.77761,-12.59975l0,-0.00001z" id="svg_42" stroke-width="0"/>
     <path stroke="#000" fill="#FFEBFF" d="m263.62686,255.90187c1.77187,-2.79923 2.07044,-6.9203 1.05032,-10.57709c0.51813,-0.1593 0.97977,-0.48944 1.32977,-1.04237c1.05841,-1.67209 0.80655,-4.65579 -0.45869,-7.2473c0.70894,-0.3906 1.39711,-1.03616 1.97419,-1.94785c1.73125,-2.73507 1.8756,-6.72511 0.32224,-8.9089c-1.40216,-1.97125 -3.70663,-1.77222 -5.41609,0.29175c-0.08429,-0.31871 -0.18215,-0.61159 -0.34102,-0.83495c-1.48725,-2.09086 -5.76338,1.04309 -9.53847,7.00705c-3.77509,5.96397 -5.62526,12.50848 -4.138,14.59934c0.10006,0.14068 0.23606,0.19246 0.36032,0.28649c-0.22004,0.18432 -0.4422,0.36081 -0.62345,0.64715c-1.0099,1.59544 -0.91868,4.17664 0.20502,5.7564c1.1237,1.57977 2.85806,1.56507 3.86795,-0.03038c0.12376,-0.19552 0.17213,-0.44171 0.26292,-0.66307c0.3471,0.79314 0.73767,1.54494 1.22526,2.23043c2.97451,4.18173 7.41703,4.38395 9.91773,0.4333l0,0z" id="svg_43" stroke-width="0"/>
    </g>
   </g>
   <g stroke="null" transform="matrix(5.16867 0.731044 -0.63026 5.99519 -1016.59 -1485.65)" id="svg_49">
    <g stroke="null" id="svg_48">
     <path stroke="#000" fill="#FFEBFF" d="m299.50823,227.58327c-3.43722,0 -6.38753,2.85571 -7.83165,6.97833c-0.57678,-0.51588 -1.21296,-0.82824 -1.89192,-0.82824c-2.05318,0 -3.76173,2.64615 -4.2898,6.23821c-0.90136,-0.57077 -1.94939,-0.91635 -3.06887,-0.91635c-3.35843,0 -6.08272,2.94384 -6.08272,6.57302c0,3.27596 2.23428,5.96909 5.13677,6.46729c-0.13009,0.3536 -0.23099,0.70376 -0.23099,1.07494c0,3.47475 5.94216,6.30869 13.2654,6.30869c7.32325,0 13.26542,-2.83395 13.26541,-6.30869c0,-0.23379 -0.09058,-0.44243 -0.14299,-0.66963c0.32075,0.12779 0.63835,0.26433 0.98995,0.26433c1.95908,0.00001 3.55284,-2.13259 3.55284,-4.75795c0,-2.62537 -1.59376,-4.75795 -3.55284,-4.75795c-0.24008,0 -0.44422,0.13285 -0.67097,0.19384c0.19827,-1.04975 0.32999,-2.12089 0.32999,-3.26008c0,-6.94948 -3.92654,-12.59975 -8.77761,-12.59975l0,-0.00001z" id="svg_46" stroke-width="0"/>
     <path stroke="#000" fill="#FFEBFF" d="m291.40458,257.43697c1.77187,-2.79923 2.07044,-6.9203 1.05032,-10.57709c0.51813,-0.1593 0.97977,-0.48944 1.32977,-1.04237c1.05841,-1.67209 0.80655,-4.65579 -0.45869,-7.2473c0.70894,-0.3906 1.39711,-1.03616 1.97419,-1.94785c1.73125,-2.73507 1.8756,-6.72511 0.32224,-8.9089c-1.40216,-1.97125 -3.70663,-1.77222 -5.41609,0.29175c-0.08429,-0.31871 -0.18215,-0.61159 -0.34102,-0.83495c-1.48725,-2.09086 -5.76338,1.04309 -9.53847,7.00705c-3.77509,5.96397 -5.62526,12.50848 -4.138,14.59934c0.10006,0.14068 0.23606,0.19246 0.36032,0.28649c-0.22004,0.18432 -0.4422,0.36081 -0.62345,0.64715c-1.0099,1.59544 -0.91868,4.17664 0.20502,5.7564c1.1237,1.57977 2.85806,1.56507 3.86795,-0.03038c0.12376,-0.19552 0.17213,-0.44171 0.26292,-0.66307c0.3471,0.79314 0.73767,1.54494 1.22526,2.23043c2.97451,4.18173 7.41703,4.38395 9.91773,0.4333l0,0z" id="svg_47" stroke-width="0"/>
    </g>
   </g>
   <g stroke="null" transform="matrix(5.16867 0.731044 -0.63026 5.99519 -1014.47 -1504.81)" id="svg_53">
    <g stroke="null" id="svg_52">
     <path stroke="#000" fill="#FFEBFF" d="m325.82396,229.33765c-3.43722,0 -6.38753,2.85571 -7.83165,6.97833c-0.57678,-0.51588 -1.21296,-0.82824 -1.89192,-0.82824c-2.05318,0 -3.76173,2.64615 -4.2898,6.23821c-0.90136,-0.57077 -1.94939,-0.91635 -3.06887,-0.91635c-3.35843,0 -6.08272,2.94384 -6.08272,6.57302c0,3.27596 2.23428,5.96909 5.13677,6.46729c-0.13009,0.3536 -0.23099,0.70376 -0.23099,1.07494c0,3.47475 5.94216,6.30869 13.2654,6.30869c7.32325,0 13.26542,-2.83395 13.26541,-6.30869c0,-0.23379 -0.09058,-0.44243 -0.14299,-0.66963c0.32075,0.12779 0.63835,0.26433 0.98995,0.26433c1.95908,0.00001 3.55284,-2.13259 3.55284,-4.75795c0,-2.62537 -1.59376,-4.75795 -3.55284,-4.75795c-0.24008,0 -0.44422,0.13285 -0.67097,0.19384c0.19827,-1.04975 0.32999,-2.12089 0.32999,-3.26008c0,-6.94948 -3.92654,-12.59975 -8.77761,-12.59975l0,-0.00001z" id="svg_50" stroke-width="0"/>
     <path stroke="#000" fill="#FFEBFF" d="m317.72031,259.19135c1.77187,-2.79923 2.07044,-6.9203 1.05032,-10.57709c0.51813,-0.1593 0.97977,-0.48944 1.32977,-1.04237c1.05841,-1.67209 0.80655,-4.65579 -0.45869,-7.2473c0.70894,-0.3906 1.39711,-1.03616 1.97419,-1.94785c1.73125,-2.73507 1.8756,-6.72511 0.32224,-8.9089c-1.40216,-1.97125 -3.70663,-1.77222 -5.41609,0.29175c-0.08429,-0.31871 -0.18215,-0.61159 -0.34102,-0.83495c-1.48725,-2.09086 -5.76338,1.04309 -9.53847,7.00705c-3.77509,5.96397 -5.62526,12.50848 -4.138,14.59934c0.10006,0.14068 0.23606,0.19246 0.36032,0.28649c-0.22004,0.18432 -0.4422,0.36081 -0.62345,0.64715c-1.0099,1.59544 -0.91868,4.17664 0.20502,5.7564c1.1237,1.57977 2.85806,1.56507 3.86795,-0.03038c0.12376,-0.19552 0.17213,-0.44171 0.26292,-0.66307c0.3471,0.79314 0.73767,1.54494 1.22526,2.23043c2.97451,4.18173 7.41703,4.38395 9.91773,0.4333l0,0z" id="svg_51" stroke-width="0"/>
    </g>
   </g>
   <g stroke="null" transform="matrix(5.16867 0.731044 -0.63026 5.99519 -1011.91 -1525.44)" id="svg_41">
    <g stroke="null" id="svg_30">
     <path stroke="#000" fill="#FFEBFF" d="m354.18647,231.67683c-3.43722,0 -6.38753,2.85571 -7.83165,6.97833c-0.57677,-0.51588 -1.21296,-0.82824 -1.89192,-0.82824c-2.05319,0 -3.76173,2.64615 -4.2898,6.23821c-0.90136,-0.57077 -1.94939,-0.91635 -3.06886,-0.91635c-3.35843,0 -6.08273,2.94384 -6.08273,6.57302c0,3.27595 2.23428,5.96909 5.13677,6.46728c-0.13009,0.3536 -0.23099,0.70377 -0.23099,1.07495c0,3.47475 5.94216,6.30869 13.2654,6.30869c7.32324,0 13.26541,-2.83394 13.2654,-6.30869c0,-0.23379 -0.09058,-0.44243 -0.14299,-0.66964c0.32076,0.12779 0.63836,0.26433 0.98995,0.26433c1.95908,0.00001 3.55284,-2.13259 3.55284,-4.75795c0,-2.62537 -1.59376,-4.75795 -3.55284,-4.75795c-0.24008,0 -0.44422,0.13285 -0.67097,0.19384c0.19827,-1.04975 0.32999,-2.12089 0.32999,-3.26008c0,-6.94948 -3.92654,-12.59975 -8.7776,-12.59975l0,0z" id="svg_23" stroke-width="0"/>
     <path stroke="#000" fill="#FFEBFF" d="m346.08282,261.53053c1.77187,-2.79923 2.07044,-6.9203 1.05032,-10.57709c0.51813,-0.1593 0.97977,-0.48944 1.32977,-1.04238c1.05841,-1.67209 0.80655,-4.65578 -0.45869,-7.2473c0.70894,-0.3906 1.39711,-1.03616 1.97419,-1.94785c1.73125,-2.73507 1.87559,-6.72511 0.32224,-8.9089c-1.40217,-1.97125 -3.70663,-1.77222 -5.41609,0.29175c-0.08429,-0.31871 -0.18215,-0.61159 -0.34102,-0.83495c-1.48725,-2.09087 -5.76338,1.04308 -9.53847,7.00705c-3.77509,5.96397 -5.62526,12.50847 -4.13801,14.59933c0.10007,0.14068 0.23606,0.19246 0.36033,0.28649c-0.22005,0.18432 -0.44221,0.36081 -0.62346,0.64715c-1.0099,1.59545 -0.91868,4.17664 0.20502,5.7564c1.1237,1.57977 2.85806,1.56507 3.86796,-0.03038c0.12376,-0.19552 0.17213,-0.44171 0.26291,-0.66307c0.34711,0.79314 0.73767,1.54494 1.22527,2.23043c2.9745,4.18173 7.41703,4.38395 9.91772,0.4333l0,0l0.00001,0.00002z" id="svg_24" stroke-width="0"/>
    </g>
   </g>
   <g stroke="null" transform="matrix(5.20628 0.0971587 -0.083764 6.03881 -1185.96 -1262.03)" id="svg_27">
    <g stroke="null" id="svg_56">
     <path stroke="#000" fill="#FFAAB8" stroke-width="0" d="m338.19711,226.85813c3.48482,-11.18222 17.13847,0 0,14.37714c-17.13847,-14.37714 -3.48482,-25.55936 0,-14.37714z" id="svg_54"/>
     <path stroke="#000" fill="#FFAAB8" stroke-width="0" d="m340.4051,221.19356c2.88777,0.9028 4.94815,3.74298 4.46669,6.15723c-0.3036,1.52237 -6.60976,10.74636 -7.1558,10.46676c-0.17822,-0.09126 -1.75833,-2.25395 -3.51134,-4.80597c-2.80815,-4.08808 -3.1864,-4.8498 -3.17969,-6.4033c0.0136,-3.14888 3.0971,-5.7159 6.78588,-5.64926c1.07644,0.01945 2.24386,0.12499 2.59426,0.23453l0,0l0,0zm-2.90391,1.5722c-0.09747,0.40728 0.12525,0.607 0.67942,0.60921c1.263,0.00505 3.00933,1.32414 3.3954,2.56473c0.41183,1.32338 1.51824,1.48498 1.68711,0.24644c0.32536,-2.38625 -5.22141,-5.6789 -5.76193,-3.42038l0,0z" id="svg_55"/>
    </g>
    <path stroke="#000" fill="#619E73" stroke-width="0" d="m338.1864,223.34931c0.36054,-0.81542 0.85403,-1.50599 1.32213,-1.85016c0.5015,-0.36872 0.279,-0.52867 -0.23834,-0.17133c-0.21765,0.15034 -0.27983,0.04117 -0.27983,-0.49122c0,-1.27026 0.95331,-2.05626 3.24702,-2.67716c1.94082,-0.52537 3.3717,-1.11619 3.96497,-1.63715l0.48344,-0.42453l0,0.73863c0,0.91333 -0.41023,2.29315 -0.86432,2.90715c-0.48171,0.65135 -2.13282,1.85365 -2.94304,2.14306c-0.72589,0.25928 -2.27616,0.33562 -3.10471,0.15287c-0.4129,-0.09107 -0.54394,-0.02149 -0.75789,0.40242c-0.14227,0.28189 -0.25867,0.68292 -0.25867,0.89118c0,0.23643 -0.13728,0.37865 -0.36551,0.37865c-0.27106,0 -0.3241,-0.09365 -0.20526,-0.36242l0,0l0,-0.00001z" id="svg_65"/>
    <ellipse stroke="#000" ry="0.8262" rx="0.68729" id="svg_6" cy="233.87606" cx="339.27389" stroke-width="0" fill="#32320F"/>
    <ellipse stroke="#000" ry="0.8262" rx="0.68729" id="svg_7" cy="229.24933" cx="340.47665" stroke-width="0" fill="#293414"/>
    <ellipse stroke="#000" ry="0.8262" rx="0.68729" id="svg_8" cy="225.94453" cx="338.07113" stroke-width="0" fill="#32320F"/>
    <ellipse stroke="#000" ry="0.8262" rx="0.68729" id="svg_9" cy="230.7365" cx="336.00925" stroke-width="0" fill="#293414"/>
    <ellipse stroke="#000" ry="0.8262" rx="0.68729" id="svg_10" cy="226.77073" cx="333.43191" stroke-width="0" fill="#32320F"/>
    <ellipse stroke="#000" ry="0.8262" rx="0.68729" id="svg_12" cy="236.18943" cx="336.69655" stroke-width="0" fill="#32320F"/>
    <ellipse stroke="#000" ry="0.8262" rx="0.68729" id="svg_22" cy="227.92741" cx="344.60041" stroke-width="0" fill="#32320F"/>
    <ellipse stroke="#000" ry="0.8262" rx="0.68729" id="svg_25" cy="232.55414" cx="343.39765" stroke-width="0" fill="#32320F"/>
    <ellipse stroke="#000" ry="0.8262" rx="0.68729" id="svg_26" cy="234.0413" cx="333.77555" stroke-width="0" fill="#32320F"/>
   </g>
   <g stroke="null" transform="matrix(5.20628 0.0971587 -0.0837641 6.03881 -1186.23 -1256.63)" id="svg_58">
    <g stroke="null" id="svg_31">
     <path stroke="#000" fill="#FFAAB8" stroke-width="0" d="m282.62155,224.13933c3.48482,-11.18223 17.13847,0 0,14.37714c-17.13847,-14.37714 -3.48482,-25.55936 0,-14.37714z" id="svg_28"/>
     <path stroke="#000" fill="#FFAAB8" stroke-width="0" d="m284.82954,218.47475c2.88777,0.9028 4.94815,3.74299 4.46669,6.15723c-0.30359,1.52237 -6.60976,10.74637 -7.1558,10.46677c-0.17822,-0.09127 -1.75832,-2.25395 -3.51134,-4.80598c-2.80816,-4.08808 -3.1864,-4.84979 -3.17969,-6.4033c0.0136,-3.14888 3.0971,-5.7159 6.78588,-5.64926c1.07644,0.01945 2.24386,0.125 2.59426,0.23454l0,0l0,0zm-2.90391,1.5722c-0.09748,0.40729 0.12525,0.607 0.67941,0.60921c1.26301,0.00505 3.00933,1.32415 3.39541,2.56474c0.41183,1.32338 1.51824,1.48498 1.68711,0.24644c0.32536,-2.38625 -5.2214,-5.6789 -5.76193,-3.42039l0,0z" id="svg_29"/>
    </g>
    <path stroke="#000" fill="#619E73" stroke-width="0" d="m282.61084,220.6305c0.36055,-0.81542 0.85403,-1.506 1.32213,-1.85016c0.5015,-0.36873 0.279,-0.52867 -0.23833,-0.17133c-0.21765,0.15034 -0.27983,0.04117 -0.27983,-0.49122c0,-1.27027 0.9533,-2.05627 3.24701,-2.67716c1.94082,-0.52537 3.3717,-1.11619 3.96497,-1.63715l0.48345,-0.42453l0,0.73863c0,0.91333 -0.41023,2.29315 -0.86433,2.90716c-0.48171,0.65135 -2.13282,1.85365 -2.94304,2.14306c-0.72589,0.25928 -2.27616,0.33562 -3.10471,0.15287c-0.4129,-0.09107 -0.54394,-0.02149 -0.75789,0.40242c-0.14226,0.2819 -0.25866,0.68293 -0.25866,0.89119c0,0.23643 -0.13729,0.37865 -0.36551,0.37865c-0.27106,0 -0.3241,-0.09365 -0.20526,-0.36242l0,0l0,-0.00001z" id="svg_32"/>
    <ellipse stroke="#000" ry="0.8262" rx="0.68729" id="svg_33" cy="231.15726" cx="283.69833" stroke-width="0" fill="#32320F"/>
    <ellipse stroke="#000" ry="0.8262" rx="0.68729" id="svg_34" cy="226.53053" cx="284.90109" stroke-width="0" fill="#293414"/>
    <ellipse stroke="#000" ry="0.8262" rx="0.68729" id="svg_35" cy="223.22572" cx="282.49557" stroke-width="0" fill="#32320F"/>
    <ellipse stroke="#000" ry="0.8262" rx="0.68729" id="svg_36" cy="228.01769" cx="280.43369" stroke-width="0" fill="#293414"/>
    <ellipse stroke="#000" ry="0.8262" rx="0.68729" id="svg_37" cy="224.05192" cx="277.85635" stroke-width="0" fill="#32320F"/>
    <ellipse stroke="#000" ry="0.8262" rx="0.68729" id="svg_38" cy="233.47062" cx="281.12099" stroke-width="0" fill="#32320F"/>
    <ellipse stroke="#000" ry="0.8262" rx="0.68729" id="svg_39" cy="225.2086" cx="289.02485" stroke-width="0" fill="#32320F"/>
    <ellipse stroke="#000" ry="0.8262" rx="0.68729" id="svg_40" cy="229.83533" cx="287.82209" stroke-width="0" fill="#32320F"/>
    <ellipse stroke="#000" ry="0.8262" rx="0.68729" id="svg_57" cy="231.3225" cx="278.19999" stroke-width="0" fill="#32320F"/>
   </g>
   <g stroke="null" transform="matrix(5.20628 0.0971587 -0.0837641 6.03881 -1186.08 -1259.4)" id="svg_74">
    <g stroke="null" id="svg_61">
     <path stroke="#000" fill="#FFAAB8" stroke-width="0" d="m311.19946,225.69626c3.48482,-11.18223 17.13847,0 0,14.37714c-17.13847,-14.37714 -3.48482,-25.55936 0,-14.37714z" id="svg_59"/>
     <path stroke="#000" fill="#FFAAB8" stroke-width="0" d="m313.40745,220.03168c2.88777,0.9028 4.94815,3.74299 4.46669,6.15723c-0.30359,1.52237 -6.60976,10.74637 -7.1558,10.46677c-0.17822,-0.09127 -1.75832,-2.25395 -3.51134,-4.80598c-2.80816,-4.08808 -3.1864,-4.84979 -3.17969,-6.4033c0.0136,-3.14888 3.0971,-5.7159 6.78588,-5.64926c1.07644,0.01945 2.24386,0.125 2.59426,0.23454l0,0l0,0zm-2.90391,1.5722c-0.09748,0.40729 0.12525,0.607 0.67941,0.60921c1.26301,0.00505 3.00933,1.32415 3.39541,2.56474c0.41183,1.32338 1.51824,1.48498 1.68711,0.24644c0.32536,-2.38625 -5.2214,-5.6789 -5.76193,-3.42039l0,0z" id="svg_60"/>
    </g>
    <path stroke="#000" fill="#619E73" stroke-width="0" d="m311.18875,222.18743c0.36055,-0.81542 0.85403,-1.506 1.32213,-1.85016c0.5015,-0.36873 0.279,-0.52867 -0.23833,-0.17133c-0.21765,0.15034 -0.27983,0.04117 -0.27983,-0.49122c0,-1.27027 0.9533,-2.05627 3.24701,-2.67716c1.94082,-0.52537 3.3717,-1.11619 3.96497,-1.63715l0.48345,-0.42453l0,0.73863c0,0.91333 -0.41023,2.29315 -0.86433,2.90716c-0.48171,0.65135 -2.13282,1.85365 -2.94304,2.14306c-0.72589,0.25928 -2.27616,0.33562 -3.10471,0.15287c-0.4129,-0.09107 -0.54394,-0.02149 -0.75789,0.40242c-0.14226,0.2819 -0.25866,0.68293 -0.25866,0.89119c0,0.23643 -0.13729,0.37865 -0.36551,0.37865c-0.27106,0 -0.3241,-0.09365 -0.20526,-0.36242l0,0l0,-0.00001z" id="svg_62"/>
    <ellipse stroke="#000" ry="0.8262" rx="0.68729" id="svg_63" cy="232.71419" cx="312.27624" stroke-width="0" fill="#32320F"/>
    <ellipse stroke="#000" ry="0.8262" rx="0.68729" id="svg_64" cy="228.08746" cx="313.479" stroke-width="0" fill="#293414"/>
    <ellipse stroke="#000" ry="0.8262" rx="0.68729" id="svg_67" cy="224.78265" cx="311.07348" stroke-width="0" fill="#32320F"/>
    <ellipse stroke="#000" ry="0.8262" rx="0.68729" id="svg_68" cy="229.57463" cx="309.0116" stroke-width="0" fill="#293414"/>
    <ellipse stroke="#000" ry="0.8262" rx="0.68729" id="svg_69" cy="225.60886" cx="306.43425" stroke-width="0" fill="#32320F"/>
    <ellipse stroke="#000" ry="0.8262" rx="0.68729" id="svg_70" cy="235.02756" cx="309.69889" stroke-width="0" fill="#32320F"/>
    <ellipse stroke="#000" ry="0.8262" rx="0.68729" id="svg_71" cy="226.76554" cx="317.60276" stroke-width="0" fill="#32320F"/>
    <ellipse stroke="#000" ry="0.8262" rx="0.68729" id="svg_72" cy="231.39227" cx="316.4" stroke-width="0" fill="#32320F"/>
    <ellipse stroke="#000" ry="0.8262" rx="0.68729" id="svg_73" cy="232.87943" cx="306.7779" stroke-width="0" fill="#32320F"/>
   </g>
  </g>
  <ellipse id="svg_11" cy="367.41016" cx="343.74226" stroke-width="0" stroke="#000" fill="#32320F"/>
 </g>

</svg>